<?xml version="1.0" encoding="UTF-8" standalone="no"?>
<!DOCTYPE svg PUBLIC "-//W3C//DTD SVG 1.1//EN"
 "http://www.w3.org/Graphics/SVG/1.1/DTD/svg11.dtd">
<!-- Generated by graphviz version 2.38.0 (20140413.2041)
 -->
<!-- Title: G Pages: 1 -->
<svg width="454pt" height="2711pt"
 viewBox="0.00 0.00 454.00 2711.00" xmlns="http://www.w3.org/2000/svg" xmlns:xlink="http://www.w3.org/1999/xlink">
<g id="graph0" class="graph" transform="scale(1 1) rotate(0) translate(4 2707)">
<title>G</title>
<polygon fill="white" stroke="none" points="-4,4 -4,-2707 450,-2707 450,4 -4,4"/>
<!-- 140320646383208 -->
<g id="node1" class="node"><title>140320646383208</title>
<polygon fill="none" stroke="black" points="70.5,-2656.5 70.5,-2702.5 375.5,-2702.5 375.5,-2656.5 70.5,-2656.5"/>
<text text-anchor="middle" x="133" y="-2675.8" font-family="Times,serif" font-size="14.00">input_1: InputLayer</text>
<polyline fill="none" stroke="black" points="195.5,-2656.5 195.5,-2702.5 "/>
<text text-anchor="middle" x="223" y="-2687.3" font-family="Times,serif" font-size="14.00">input:</text>
<polyline fill="none" stroke="black" points="195.5,-2679.5 250.5,-2679.5 "/>
<text text-anchor="middle" x="223" y="-2664.3" font-family="Times,serif" font-size="14.00">output:</text>
<polyline fill="none" stroke="black" points="250.5,-2656.5 250.5,-2702.5 "/>
<text text-anchor="middle" x="313" y="-2687.3" font-family="Times,serif" font-size="14.00">(None, 256, 256, 1)</text>
<polyline fill="none" stroke="black" points="250.5,-2679.5 375.5,-2679.5 "/>
<text text-anchor="middle" x="313" y="-2664.3" font-family="Times,serif" font-size="14.00">(None, 256, 256, 1)</text>
</g>
<!-- 140320639643720 -->
<g id="node2" class="node"><title>140320639643720</title>
<polygon fill="none" stroke="black" points="72,-2573.5 72,-2619.5 374,-2619.5 374,-2573.5 72,-2573.5"/>
<text text-anchor="middle" x="130" y="-2592.8" font-family="Times,serif" font-size="14.00">conv1_1: Conv2D</text>
<polyline fill="none" stroke="black" points="188,-2573.5 188,-2619.5 "/>
<text text-anchor="middle" x="215.5" y="-2604.3" font-family="Times,serif" font-size="14.00">input:</text>
<polyline fill="none" stroke="black" points="188,-2596.5 243,-2596.5 "/>
<text text-anchor="middle" x="215.5" y="-2581.3" font-family="Times,serif" font-size="14.00">output:</text>
<polyline fill="none" stroke="black" points="243,-2573.5 243,-2619.5 "/>
<text text-anchor="middle" x="308.5" y="-2604.3" font-family="Times,serif" font-size="14.00">(None, 256, 256, 1)</text>
<polyline fill="none" stroke="black" points="243,-2596.5 374,-2596.5 "/>
<text text-anchor="middle" x="308.5" y="-2581.3" font-family="Times,serif" font-size="14.00">(None, 256, 256, 64)</text>
</g>
<!-- 140320646383208&#45;&gt;140320639643720 -->
<g id="edge1" class="edge"><title>140320646383208&#45;&gt;140320639643720</title>
<path fill="none" stroke="black" d="M223,-2656.37C223,-2648.15 223,-2638.66 223,-2629.73"/>
<polygon fill="black" stroke="black" points="226.5,-2629.61 223,-2619.61 219.5,-2629.61 226.5,-2629.61"/>
</g>
<!-- 140320639604384 -->
<g id="node3" class="node"><title>140320639604384</title>
<polygon fill="none" stroke="black" points="72,-2490.5 72,-2536.5 374,-2536.5 374,-2490.5 72,-2490.5"/>
<text text-anchor="middle" x="130" y="-2509.8" font-family="Times,serif" font-size="14.00">conv1_2: Conv2D</text>
<polyline fill="none" stroke="black" points="188,-2490.5 188,-2536.5 "/>
<text text-anchor="middle" x="215.5" y="-2521.3" font-family="Times,serif" font-size="14.00">input:</text>
<polyline fill="none" stroke="black" points="188,-2513.5 243,-2513.5 "/>
<text text-anchor="middle" x="215.5" y="-2498.3" font-family="Times,serif" font-size="14.00">output:</text>
<polyline fill="none" stroke="black" points="243,-2490.5 243,-2536.5 "/>
<text text-anchor="middle" x="308.5" y="-2521.3" font-family="Times,serif" font-size="14.00">(None, 256, 256, 64)</text>
<polyline fill="none" stroke="black" points="243,-2513.5 374,-2513.5 "/>
<text text-anchor="middle" x="308.5" y="-2498.3" font-family="Times,serif" font-size="14.00">(None, 128, 128, 64)</text>
</g>
<!-- 140320639643720&#45;&gt;140320639604384 -->
<g id="edge2" class="edge"><title>140320639643720&#45;&gt;140320639604384</title>
<path fill="none" stroke="black" d="M223,-2573.37C223,-2565.15 223,-2555.66 223,-2546.73"/>
<polygon fill="black" stroke="black" points="226.5,-2546.61 223,-2536.61 219.5,-2546.61 226.5,-2546.61"/>
</g>
<!-- 140320639193040 -->
<g id="node4" class="node"><title>140320639193040</title>
<polygon fill="none" stroke="black" points="-2.84217e-14,-2407.5 -2.84217e-14,-2453.5 446,-2453.5 446,-2407.5 -2.84217e-14,-2407.5"/>
<text text-anchor="middle" x="130" y="-2426.8" font-family="Times,serif" font-size="14.00">batch_normalization_1: BatchNormalization</text>
<polyline fill="none" stroke="black" points="260,-2407.5 260,-2453.5 "/>
<text text-anchor="middle" x="287.5" y="-2438.3" font-family="Times,serif" font-size="14.00">input:</text>
<polyline fill="none" stroke="black" points="260,-2430.5 315,-2430.5 "/>
<text text-anchor="middle" x="287.5" y="-2415.3" font-family="Times,serif" font-size="14.00">output:</text>
<polyline fill="none" stroke="black" points="315,-2407.5 315,-2453.5 "/>
<text text-anchor="middle" x="380.5" y="-2438.3" font-family="Times,serif" font-size="14.00">(None, 128, 128, 64)</text>
<polyline fill="none" stroke="black" points="315,-2430.5 446,-2430.5 "/>
<text text-anchor="middle" x="380.5" y="-2415.3" font-family="Times,serif" font-size="14.00">(None, 128, 128, 64)</text>
</g>
<!-- 140320639604384&#45;&gt;140320639193040 -->
<g id="edge3" class="edge"><title>140320639604384&#45;&gt;140320639193040</title>
<path fill="none" stroke="black" d="M223,-2490.37C223,-2482.15 223,-2472.66 223,-2463.73"/>
<polygon fill="black" stroke="black" points="226.5,-2463.61 223,-2453.61 219.5,-2463.61 226.5,-2463.61"/>
</g>
<!-- 140320639288376 -->
<g id="node5" class="node"><title>140320639288376</title>
<polygon fill="none" stroke="black" points="68.5,-2324.5 68.5,-2370.5 377.5,-2370.5 377.5,-2324.5 68.5,-2324.5"/>
<text text-anchor="middle" x="126.5" y="-2343.8" font-family="Times,serif" font-size="14.00">conv2_1: Conv2D</text>
<polyline fill="none" stroke="black" points="184.5,-2324.5 184.5,-2370.5 "/>
<text text-anchor="middle" x="212" y="-2355.3" font-family="Times,serif" font-size="14.00">input:</text>
<polyline fill="none" stroke="black" points="184.5,-2347.5 239.5,-2347.5 "/>
<text text-anchor="middle" x="212" y="-2332.3" font-family="Times,serif" font-size="14.00">output:</text>
<polyline fill="none" stroke="black" points="239.5,-2324.5 239.5,-2370.5 "/>
<text text-anchor="middle" x="308.5" y="-2355.3" font-family="Times,serif" font-size="14.00">(None, 128, 128, 64)</text>
<polyline fill="none" stroke="black" points="239.5,-2347.5 377.5,-2347.5 "/>
<text text-anchor="middle" x="308.5" y="-2332.3" font-family="Times,serif" font-size="14.00">(None, 128, 128, 128)</text>
</g>
<!-- 140320639193040&#45;&gt;140320639288376 -->
<g id="edge4" class="edge"><title>140320639193040&#45;&gt;140320639288376</title>
<path fill="none" stroke="black" d="M223,-2407.37C223,-2399.15 223,-2389.66 223,-2380.73"/>
<polygon fill="black" stroke="black" points="226.5,-2380.61 223,-2370.61 219.5,-2380.61 226.5,-2380.61"/>
</g>
<!-- 140320639126328 -->
<g id="node6" class="node"><title>140320639126328</title>
<polygon fill="none" stroke="black" points="68.5,-2241.5 68.5,-2287.5 377.5,-2287.5 377.5,-2241.5 68.5,-2241.5"/>
<text text-anchor="middle" x="126.5" y="-2260.8" font-family="Times,serif" font-size="14.00">conv2_2: Conv2D</text>
<polyline fill="none" stroke="black" points="184.5,-2241.5 184.5,-2287.5 "/>
<text text-anchor="middle" x="212" y="-2272.3" font-family="Times,serif" font-size="14.00">input:</text>
<polyline fill="none" stroke="black" points="184.5,-2264.5 239.5,-2264.5 "/>
<text text-anchor="middle" x="212" y="-2249.3" font-family="Times,serif" font-size="14.00">output:</text>
<polyline fill="none" stroke="black" points="239.5,-2241.5 239.5,-2287.5 "/>
<text text-anchor="middle" x="308.5" y="-2272.3" font-family="Times,serif" font-size="14.00">(None, 128, 128, 128)</text>
<polyline fill="none" stroke="black" points="239.5,-2264.5 377.5,-2264.5 "/>
<text text-anchor="middle" x="308.5" y="-2249.3" font-family="Times,serif" font-size="14.00">(None, 64, 64, 128)</text>
</g>
<!-- 140320639288376&#45;&gt;140320639126328 -->
<g id="edge5" class="edge"><title>140320639288376&#45;&gt;140320639126328</title>
<path fill="none" stroke="black" d="M223,-2324.37C223,-2316.15 223,-2306.66 223,-2297.73"/>
<polygon fill="black" stroke="black" points="226.5,-2297.61 223,-2287.61 219.5,-2297.61 226.5,-2297.61"/>
</g>
<!-- 140320638666344 -->
<g id="node7" class="node"><title>140320638666344</title>
<polygon fill="none" stroke="black" points="3,-2158.5 3,-2204.5 443,-2204.5 443,-2158.5 3,-2158.5"/>
<text text-anchor="middle" x="133" y="-2177.8" font-family="Times,serif" font-size="14.00">batch_normalization_2: BatchNormalization</text>
<polyline fill="none" stroke="black" points="263,-2158.5 263,-2204.5 "/>
<text text-anchor="middle" x="290.5" y="-2189.3" font-family="Times,serif" font-size="14.00">input:</text>
<polyline fill="none" stroke="black" points="263,-2181.5 318,-2181.5 "/>
<text text-anchor="middle" x="290.5" y="-2166.3" font-family="Times,serif" font-size="14.00">output:</text>
<polyline fill="none" stroke="black" points="318,-2158.5 318,-2204.5 "/>
<text text-anchor="middle" x="380.5" y="-2189.3" font-family="Times,serif" font-size="14.00">(None, 64, 64, 128)</text>
<polyline fill="none" stroke="black" points="318,-2181.5 443,-2181.5 "/>
<text text-anchor="middle" x="380.5" y="-2166.3" font-family="Times,serif" font-size="14.00">(None, 64, 64, 128)</text>
</g>
<!-- 140320639126328&#45;&gt;140320638666344 -->
<g id="edge6" class="edge"><title>140320639126328&#45;&gt;140320638666344</title>
<path fill="none" stroke="black" d="M223,-2241.37C223,-2233.15 223,-2223.66 223,-2214.73"/>
<polygon fill="black" stroke="black" points="226.5,-2214.61 223,-2204.61 219.5,-2214.61 226.5,-2214.61"/>
</g>
<!-- 140320638431752 -->
<g id="node8" class="node"><title>140320638431752</title>
<polygon fill="none" stroke="black" points="75,-2075.5 75,-2121.5 371,-2121.5 371,-2075.5 75,-2075.5"/>
<text text-anchor="middle" x="133" y="-2094.8" font-family="Times,serif" font-size="14.00">conv3_1: Conv2D</text>
<polyline fill="none" stroke="black" points="191,-2075.5 191,-2121.5 "/>
<text text-anchor="middle" x="218.5" y="-2106.3" font-family="Times,serif" font-size="14.00">input:</text>
<polyline fill="none" stroke="black" points="191,-2098.5 246,-2098.5 "/>
<text text-anchor="middle" x="218.5" y="-2083.3" font-family="Times,serif" font-size="14.00">output:</text>
<polyline fill="none" stroke="black" points="246,-2075.5 246,-2121.5 "/>
<text text-anchor="middle" x="308.5" y="-2106.3" font-family="Times,serif" font-size="14.00">(None, 64, 64, 128)</text>
<polyline fill="none" stroke="black" points="246,-2098.5 371,-2098.5 "/>
<text text-anchor="middle" x="308.5" y="-2083.3" font-family="Times,serif" font-size="14.00">(None, 64, 64, 256)</text>
</g>
<!-- 140320638666344&#45;&gt;140320638431752 -->
<g id="edge7" class="edge"><title>140320638666344&#45;&gt;140320638431752</title>
<path fill="none" stroke="black" d="M223,-2158.37C223,-2150.15 223,-2140.66 223,-2131.73"/>
<polygon fill="black" stroke="black" points="226.5,-2131.61 223,-2121.61 219.5,-2131.61 226.5,-2131.61"/>
</g>
<!-- 140320638071808 -->
<g id="node9" class="node"><title>140320638071808</title>
<polygon fill="none" stroke="black" points="75,-1992.5 75,-2038.5 371,-2038.5 371,-1992.5 75,-1992.5"/>
<text text-anchor="middle" x="133" y="-2011.8" font-family="Times,serif" font-size="14.00">conv3_2: Conv2D</text>
<polyline fill="none" stroke="black" points="191,-1992.5 191,-2038.5 "/>
<text text-anchor="middle" x="218.5" y="-2023.3" font-family="Times,serif" font-size="14.00">input:</text>
<polyline fill="none" stroke="black" points="191,-2015.5 246,-2015.5 "/>
<text text-anchor="middle" x="218.5" y="-2000.3" font-family="Times,serif" font-size="14.00">output:</text>
<polyline fill="none" stroke="black" points="246,-1992.5 246,-2038.5 "/>
<text text-anchor="middle" x="308.5" y="-2023.3" font-family="Times,serif" font-size="14.00">(None, 64, 64, 256)</text>
<polyline fill="none" stroke="black" points="246,-2015.5 371,-2015.5 "/>
<text text-anchor="middle" x="308.5" y="-2000.3" font-family="Times,serif" font-size="14.00">(None, 64, 64, 256)</text>
</g>
<!-- 140320638431752&#45;&gt;140320638071808 -->
<g id="edge8" class="edge"><title>140320638431752&#45;&gt;140320638071808</title>
<path fill="none" stroke="black" d="M223,-2075.37C223,-2067.15 223,-2057.66 223,-2048.73"/>
<polygon fill="black" stroke="black" points="226.5,-2048.61 223,-2038.61 219.5,-2048.61 226.5,-2048.61"/>
</g>
<!-- 140320638173136 -->
<g id="node10" class="node"><title>140320638173136</title>
<polygon fill="none" stroke="black" points="75,-1909.5 75,-1955.5 371,-1955.5 371,-1909.5 75,-1909.5"/>
<text text-anchor="middle" x="133" y="-1928.8" font-family="Times,serif" font-size="14.00">conv3_3: Conv2D</text>
<polyline fill="none" stroke="black" points="191,-1909.5 191,-1955.5 "/>
<text text-anchor="middle" x="218.5" y="-1940.3" font-family="Times,serif" font-size="14.00">input:</text>
<polyline fill="none" stroke="black" points="191,-1932.5 246,-1932.5 "/>
<text text-anchor="middle" x="218.5" y="-1917.3" font-family="Times,serif" font-size="14.00">output:</text>
<polyline fill="none" stroke="black" points="246,-1909.5 246,-1955.5 "/>
<text text-anchor="middle" x="308.5" y="-1940.3" font-family="Times,serif" font-size="14.00">(None, 64, 64, 256)</text>
<polyline fill="none" stroke="black" points="246,-1932.5 371,-1932.5 "/>
<text text-anchor="middle" x="308.5" y="-1917.3" font-family="Times,serif" font-size="14.00">(None, 32, 32, 256)</text>
</g>
<!-- 140320638071808&#45;&gt;140320638173136 -->
<g id="edge9" class="edge"><title>140320638071808&#45;&gt;140320638173136</title>
<path fill="none" stroke="black" d="M223,-1992.37C223,-1984.15 223,-1974.66 223,-1965.73"/>
<polygon fill="black" stroke="black" points="226.5,-1965.61 223,-1955.61 219.5,-1965.61 226.5,-1965.61"/>
</g>
<!-- 140320637543536 -->
<g id="node11" class="node"><title>140320637543536</title>
<polygon fill="none" stroke="black" points="3,-1826.5 3,-1872.5 443,-1872.5 443,-1826.5 3,-1826.5"/>
<text text-anchor="middle" x="133" y="-1845.8" font-family="Times,serif" font-size="14.00">batch_normalization_3: BatchNormalization</text>
<polyline fill="none" stroke="black" points="263,-1826.5 263,-1872.5 "/>
<text text-anchor="middle" x="290.5" y="-1857.3" font-family="Times,serif" font-size="14.00">input:</text>
<polyline fill="none" stroke="black" points="263,-1849.5 318,-1849.5 "/>
<text text-anchor="middle" x="290.5" y="-1834.3" font-family="Times,serif" font-size="14.00">output:</text>
<polyline fill="none" stroke="black" points="318,-1826.5 318,-1872.5 "/>
<text text-anchor="middle" x="380.5" y="-1857.3" font-family="Times,serif" font-size="14.00">(None, 32, 32, 256)</text>
<polyline fill="none" stroke="black" points="318,-1849.5 443,-1849.5 "/>
<text text-anchor="middle" x="380.5" y="-1834.3" font-family="Times,serif" font-size="14.00">(None, 32, 32, 256)</text>
</g>
<!-- 140320638173136&#45;&gt;140320637543536 -->
<g id="edge10" class="edge"><title>140320638173136&#45;&gt;140320637543536</title>
<path fill="none" stroke="black" d="M223,-1909.37C223,-1901.15 223,-1891.66 223,-1882.73"/>
<polygon fill="black" stroke="black" points="226.5,-1882.61 223,-1872.61 219.5,-1882.61 226.5,-1882.61"/>
</g>
<!-- 140320637580288 -->
<g id="node12" class="node"><title>140320637580288</title>
<polygon fill="none" stroke="black" points="75,-1743.5 75,-1789.5 371,-1789.5 371,-1743.5 75,-1743.5"/>
<text text-anchor="middle" x="133" y="-1762.8" font-family="Times,serif" font-size="14.00">conv4_1: Conv2D</text>
<polyline fill="none" stroke="black" points="191,-1743.5 191,-1789.5 "/>
<text text-anchor="middle" x="218.5" y="-1774.3" font-family="Times,serif" font-size="14.00">input:</text>
<polyline fill="none" stroke="black" points="191,-1766.5 246,-1766.5 "/>
<text text-anchor="middle" x="218.5" y="-1751.3" font-family="Times,serif" font-size="14.00">output:</text>
<polyline fill="none" stroke="black" points="246,-1743.5 246,-1789.5 "/>
<text text-anchor="middle" x="308.5" y="-1774.3" font-family="Times,serif" font-size="14.00">(None, 32, 32, 256)</text>
<polyline fill="none" stroke="black" points="246,-1766.5 371,-1766.5 "/>
<text text-anchor="middle" x="308.5" y="-1751.3" font-family="Times,serif" font-size="14.00">(None, 32, 32, 512)</text>
</g>
<!-- 140320637543536&#45;&gt;140320637580288 -->
<g id="edge11" class="edge"><title>140320637543536&#45;&gt;140320637580288</title>
<path fill="none" stroke="black" d="M223,-1826.37C223,-1818.15 223,-1808.66 223,-1799.73"/>
<polygon fill="black" stroke="black" points="226.5,-1799.61 223,-1789.61 219.5,-1799.61 226.5,-1799.61"/>
</g>
<!-- 140320638918328 -->
<g id="node13" class="node"><title>140320638918328</title>
<polygon fill="none" stroke="black" points="75,-1660.5 75,-1706.5 371,-1706.5 371,-1660.5 75,-1660.5"/>
<text text-anchor="middle" x="133" y="-1679.8" font-family="Times,serif" font-size="14.00">conv4_2: Conv2D</text>
<polyline fill="none" stroke="black" points="191,-1660.5 191,-1706.5 "/>
<text text-anchor="middle" x="218.5" y="-1691.3" font-family="Times,serif" font-size="14.00">input:</text>
<polyline fill="none" stroke="black" points="191,-1683.5 246,-1683.5 "/>
<text text-anchor="middle" x="218.5" y="-1668.3" font-family="Times,serif" font-size="14.00">output:</text>
<polyline fill="none" stroke="black" points="246,-1660.5 246,-1706.5 "/>
<text text-anchor="middle" x="308.5" y="-1691.3" font-family="Times,serif" font-size="14.00">(None, 32, 32, 512)</text>
<polyline fill="none" stroke="black" points="246,-1683.5 371,-1683.5 "/>
<text text-anchor="middle" x="308.5" y="-1668.3" font-family="Times,serif" font-size="14.00">(None, 32, 32, 512)</text>
</g>
<!-- 140320637580288&#45;&gt;140320638918328 -->
<g id="edge12" class="edge"><title>140320637580288&#45;&gt;140320638918328</title>
<path fill="none" stroke="black" d="M223,-1743.37C223,-1735.15 223,-1725.66 223,-1716.73"/>
<polygon fill="black" stroke="black" points="226.5,-1716.61 223,-1706.61 219.5,-1716.61 226.5,-1716.61"/>
</g>
<!-- 140319333682928 -->
<g id="node14" class="node"><title>140319333682928</title>
<polygon fill="none" stroke="black" points="75,-1577.5 75,-1623.5 371,-1623.5 371,-1577.5 75,-1577.5"/>
<text text-anchor="middle" x="133" y="-1596.8" font-family="Times,serif" font-size="14.00">conv4_3: Conv2D</text>
<polyline fill="none" stroke="black" points="191,-1577.5 191,-1623.5 "/>
<text text-anchor="middle" x="218.5" y="-1608.3" font-family="Times,serif" font-size="14.00">input:</text>
<polyline fill="none" stroke="black" points="191,-1600.5 246,-1600.5 "/>
<text text-anchor="middle" x="218.5" y="-1585.3" font-family="Times,serif" font-size="14.00">output:</text>
<polyline fill="none" stroke="black" points="246,-1577.5 246,-1623.5 "/>
<text text-anchor="middle" x="308.5" y="-1608.3" font-family="Times,serif" font-size="14.00">(None, 32, 32, 512)</text>
<polyline fill="none" stroke="black" points="246,-1600.5 371,-1600.5 "/>
<text text-anchor="middle" x="308.5" y="-1585.3" font-family="Times,serif" font-size="14.00">(None, 32, 32, 512)</text>
</g>
<!-- 140320638918328&#45;&gt;140319333682928 -->
<g id="edge13" class="edge"><title>140320638918328&#45;&gt;140319333682928</title>
<path fill="none" stroke="black" d="M223,-1660.37C223,-1652.15 223,-1642.66 223,-1633.73"/>
<polygon fill="black" stroke="black" points="226.5,-1633.61 223,-1623.61 219.5,-1633.61 226.5,-1633.61"/>
</g>
<!-- 140319333735728 -->
<g id="node15" class="node"><title>140319333735728</title>
<polygon fill="none" stroke="black" points="3,-1494.5 3,-1540.5 443,-1540.5 443,-1494.5 3,-1494.5"/>
<text text-anchor="middle" x="133" y="-1513.8" font-family="Times,serif" font-size="14.00">batch_normalization_4: BatchNormalization</text>
<polyline fill="none" stroke="black" points="263,-1494.5 263,-1540.5 "/>
<text text-anchor="middle" x="290.5" y="-1525.3" font-family="Times,serif" font-size="14.00">input:</text>
<polyline fill="none" stroke="black" points="263,-1517.5 318,-1517.5 "/>
<text text-anchor="middle" x="290.5" y="-1502.3" font-family="Times,serif" font-size="14.00">output:</text>
<polyline fill="none" stroke="black" points="318,-1494.5 318,-1540.5 "/>
<text text-anchor="middle" x="380.5" y="-1525.3" font-family="Times,serif" font-size="14.00">(None, 32, 32, 512)</text>
<polyline fill="none" stroke="black" points="318,-1517.5 443,-1517.5 "/>
<text text-anchor="middle" x="380.5" y="-1502.3" font-family="Times,serif" font-size="14.00">(None, 32, 32, 512)</text>
</g>
<!-- 140319333682928&#45;&gt;140319333735728 -->
<g id="edge14" class="edge"><title>140319333682928&#45;&gt;140319333735728</title>
<path fill="none" stroke="black" d="M223,-1577.37C223,-1569.15 223,-1559.66 223,-1550.73"/>
<polygon fill="black" stroke="black" points="226.5,-1550.61 223,-1540.61 219.5,-1550.61 226.5,-1550.61"/>
</g>
<!-- 140319333254928 -->
<g id="node16" class="node"><title>140319333254928</title>
<polygon fill="none" stroke="black" points="75,-1411.5 75,-1457.5 371,-1457.5 371,-1411.5 75,-1411.5"/>
<text text-anchor="middle" x="133" y="-1430.8" font-family="Times,serif" font-size="14.00">conv5_1: Conv2D</text>
<polyline fill="none" stroke="black" points="191,-1411.5 191,-1457.5 "/>
<text text-anchor="middle" x="218.5" y="-1442.3" font-family="Times,serif" font-size="14.00">input:</text>
<polyline fill="none" stroke="black" points="191,-1434.5 246,-1434.5 "/>
<text text-anchor="middle" x="218.5" y="-1419.3" font-family="Times,serif" font-size="14.00">output:</text>
<polyline fill="none" stroke="black" points="246,-1411.5 246,-1457.5 "/>
<text text-anchor="middle" x="308.5" y="-1442.3" font-family="Times,serif" font-size="14.00">(None, 32, 32, 512)</text>
<polyline fill="none" stroke="black" points="246,-1434.5 371,-1434.5 "/>
<text text-anchor="middle" x="308.5" y="-1419.3" font-family="Times,serif" font-size="14.00">(None, 32, 32, 512)</text>
</g>
<!-- 140319333735728&#45;&gt;140319333254928 -->
<g id="edge15" class="edge"><title>140319333735728&#45;&gt;140319333254928</title>
<path fill="none" stroke="black" d="M223,-1494.37C223,-1486.15 223,-1476.66 223,-1467.73"/>
<polygon fill="black" stroke="black" points="226.5,-1467.61 223,-1457.61 219.5,-1467.61 226.5,-1467.61"/>
</g>
<!-- 140319333428920 -->
<g id="node17" class="node"><title>140319333428920</title>
<polygon fill="none" stroke="black" points="75,-1328.5 75,-1374.5 371,-1374.5 371,-1328.5 75,-1328.5"/>
<text text-anchor="middle" x="133" y="-1347.8" font-family="Times,serif" font-size="14.00">conv5_2: Conv2D</text>
<polyline fill="none" stroke="black" points="191,-1328.5 191,-1374.5 "/>
<text text-anchor="middle" x="218.5" y="-1359.3" font-family="Times,serif" font-size="14.00">input:</text>
<polyline fill="none" stroke="black" points="191,-1351.5 246,-1351.5 "/>
<text text-anchor="middle" x="218.5" y="-1336.3" font-family="Times,serif" font-size="14.00">output:</text>
<polyline fill="none" stroke="black" points="246,-1328.5 246,-1374.5 "/>
<text text-anchor="middle" x="308.5" y="-1359.3" font-family="Times,serif" font-size="14.00">(None, 32, 32, 512)</text>
<polyline fill="none" stroke="black" points="246,-1351.5 371,-1351.5 "/>
<text text-anchor="middle" x="308.5" y="-1336.3" font-family="Times,serif" font-size="14.00">(None, 32, 32, 512)</text>
</g>
<!-- 140319333254928&#45;&gt;140319333428920 -->
<g id="edge16" class="edge"><title>140319333254928&#45;&gt;140319333428920</title>
<path fill="none" stroke="black" d="M223,-1411.37C223,-1403.15 223,-1393.66 223,-1384.73"/>
<polygon fill="black" stroke="black" points="226.5,-1384.61 223,-1374.61 219.5,-1384.61 226.5,-1384.61"/>
</g>
<!-- 140318797748488 -->
<g id="node18" class="node"><title>140318797748488</title>
<polygon fill="none" stroke="black" points="75,-1245.5 75,-1291.5 371,-1291.5 371,-1245.5 75,-1245.5"/>
<text text-anchor="middle" x="133" y="-1264.8" font-family="Times,serif" font-size="14.00">conv5_3: Conv2D</text>
<polyline fill="none" stroke="black" points="191,-1245.5 191,-1291.5 "/>
<text text-anchor="middle" x="218.5" y="-1276.3" font-family="Times,serif" font-size="14.00">input:</text>
<polyline fill="none" stroke="black" points="191,-1268.5 246,-1268.5 "/>
<text text-anchor="middle" x="218.5" y="-1253.3" font-family="Times,serif" font-size="14.00">output:</text>
<polyline fill="none" stroke="black" points="246,-1245.5 246,-1291.5 "/>
<text text-anchor="middle" x="308.5" y="-1276.3" font-family="Times,serif" font-size="14.00">(None, 32, 32, 512)</text>
<polyline fill="none" stroke="black" points="246,-1268.5 371,-1268.5 "/>
<text text-anchor="middle" x="308.5" y="-1253.3" font-family="Times,serif" font-size="14.00">(None, 32, 32, 512)</text>
</g>
<!-- 140319333428920&#45;&gt;140318797748488 -->
<g id="edge17" class="edge"><title>140319333428920&#45;&gt;140318797748488</title>
<path fill="none" stroke="black" d="M223,-1328.37C223,-1320.15 223,-1310.66 223,-1301.73"/>
<polygon fill="black" stroke="black" points="226.5,-1301.61 223,-1291.61 219.5,-1301.61 226.5,-1301.61"/>
</g>
<!-- 140318797630712 -->
<g id="node19" class="node"><title>140318797630712</title>
<polygon fill="none" stroke="black" points="3,-1162.5 3,-1208.5 443,-1208.5 443,-1162.5 3,-1162.5"/>
<text text-anchor="middle" x="133" y="-1181.8" font-family="Times,serif" font-size="14.00">batch_normalization_5: BatchNormalization</text>
<polyline fill="none" stroke="black" points="263,-1162.5 263,-1208.5 "/>
<text text-anchor="middle" x="290.5" y="-1193.3" font-family="Times,serif" font-size="14.00">input:</text>
<polyline fill="none" stroke="black" points="263,-1185.5 318,-1185.5 "/>
<text text-anchor="middle" x="290.5" y="-1170.3" font-family="Times,serif" font-size="14.00">output:</text>
<polyline fill="none" stroke="black" points="318,-1162.5 318,-1208.5 "/>
<text text-anchor="middle" x="380.5" y="-1193.3" font-family="Times,serif" font-size="14.00">(None, 32, 32, 512)</text>
<polyline fill="none" stroke="black" points="318,-1185.5 443,-1185.5 "/>
<text text-anchor="middle" x="380.5" y="-1170.3" font-family="Times,serif" font-size="14.00">(None, 32, 32, 512)</text>
</g>
<!-- 140318797748488&#45;&gt;140318797630712 -->
<g id="edge18" class="edge"><title>140318797748488&#45;&gt;140318797630712</title>
<path fill="none" stroke="black" d="M223,-1245.37C223,-1237.15 223,-1227.66 223,-1218.73"/>
<polygon fill="black" stroke="black" points="226.5,-1218.61 223,-1208.61 219.5,-1218.61 226.5,-1218.61"/>
</g>
<!-- 140318797311840 -->
<g id="node20" class="node"><title>140318797311840</title>
<polygon fill="none" stroke="black" points="75,-1079.5 75,-1125.5 371,-1125.5 371,-1079.5 75,-1079.5"/>
<text text-anchor="middle" x="133" y="-1098.8" font-family="Times,serif" font-size="14.00">conv6_1: Conv2D</text>
<polyline fill="none" stroke="black" points="191,-1079.5 191,-1125.5 "/>
<text text-anchor="middle" x="218.5" y="-1110.3" font-family="Times,serif" font-size="14.00">input:</text>
<polyline fill="none" stroke="black" points="191,-1102.5 246,-1102.5 "/>
<text text-anchor="middle" x="218.5" y="-1087.3" font-family="Times,serif" font-size="14.00">output:</text>
<polyline fill="none" stroke="black" points="246,-1079.5 246,-1125.5 "/>
<text text-anchor="middle" x="308.5" y="-1110.3" font-family="Times,serif" font-size="14.00">(None, 32, 32, 512)</text>
<polyline fill="none" stroke="black" points="246,-1102.5 371,-1102.5 "/>
<text text-anchor="middle" x="308.5" y="-1087.3" font-family="Times,serif" font-size="14.00">(None, 32, 32, 512)</text>
</g>
<!-- 140318797630712&#45;&gt;140318797311840 -->
<g id="edge19" class="edge"><title>140318797630712&#45;&gt;140318797311840</title>
<path fill="none" stroke="black" d="M223,-1162.37C223,-1154.15 223,-1144.66 223,-1135.73"/>
<polygon fill="black" stroke="black" points="226.5,-1135.61 223,-1125.61 219.5,-1135.61 226.5,-1135.61"/>
</g>
<!-- 140318796955888 -->
<g id="node21" class="node"><title>140318796955888</title>
<polygon fill="none" stroke="black" points="75,-996.5 75,-1042.5 371,-1042.5 371,-996.5 75,-996.5"/>
<text text-anchor="middle" x="133" y="-1015.8" font-family="Times,serif" font-size="14.00">conv6_2: Conv2D</text>
<polyline fill="none" stroke="black" points="191,-996.5 191,-1042.5 "/>
<text text-anchor="middle" x="218.5" y="-1027.3" font-family="Times,serif" font-size="14.00">input:</text>
<polyline fill="none" stroke="black" points="191,-1019.5 246,-1019.5 "/>
<text text-anchor="middle" x="218.5" y="-1004.3" font-family="Times,serif" font-size="14.00">output:</text>
<polyline fill="none" stroke="black" points="246,-996.5 246,-1042.5 "/>
<text text-anchor="middle" x="308.5" y="-1027.3" font-family="Times,serif" font-size="14.00">(None, 32, 32, 512)</text>
<polyline fill="none" stroke="black" points="246,-1019.5 371,-1019.5 "/>
<text text-anchor="middle" x="308.5" y="-1004.3" font-family="Times,serif" font-size="14.00">(None, 32, 32, 512)</text>
</g>
<!-- 140318797311840&#45;&gt;140318796955888 -->
<g id="edge20" class="edge"><title>140318797311840&#45;&gt;140318796955888</title>
<path fill="none" stroke="black" d="M223,-1079.37C223,-1071.15 223,-1061.66 223,-1052.73"/>
<polygon fill="black" stroke="black" points="226.5,-1052.61 223,-1042.61 219.5,-1052.61 226.5,-1052.61"/>
</g>
<!-- 140318796385920 -->
<g id="node22" class="node"><title>140318796385920</title>
<polygon fill="none" stroke="black" points="75,-913.5 75,-959.5 371,-959.5 371,-913.5 75,-913.5"/>
<text text-anchor="middle" x="133" y="-932.8" font-family="Times,serif" font-size="14.00">conv6_3: Conv2D</text>
<polyline fill="none" stroke="black" points="191,-913.5 191,-959.5 "/>
<text text-anchor="middle" x="218.5" y="-944.3" font-family="Times,serif" font-size="14.00">input:</text>
<polyline fill="none" stroke="black" points="191,-936.5 246,-936.5 "/>
<text text-anchor="middle" x="218.5" y="-921.3" font-family="Times,serif" font-size="14.00">output:</text>
<polyline fill="none" stroke="black" points="246,-913.5 246,-959.5 "/>
<text text-anchor="middle" x="308.5" y="-944.3" font-family="Times,serif" font-size="14.00">(None, 32, 32, 512)</text>
<polyline fill="none" stroke="black" points="246,-936.5 371,-936.5 "/>
<text text-anchor="middle" x="308.5" y="-921.3" font-family="Times,serif" font-size="14.00">(None, 32, 32, 512)</text>
</g>
<!-- 140318796955888&#45;&gt;140318796385920 -->
<g id="edge21" class="edge"><title>140318796955888&#45;&gt;140318796385920</title>
<path fill="none" stroke="black" d="M223,-996.366C223,-988.152 223,-978.658 223,-969.725"/>
<polygon fill="black" stroke="black" points="226.5,-969.607 223,-959.607 219.5,-969.607 226.5,-969.607"/>
</g>
<!-- 140318796431544 -->
<g id="node23" class="node"><title>140318796431544</title>
<polygon fill="none" stroke="black" points="3,-830.5 3,-876.5 443,-876.5 443,-830.5 3,-830.5"/>
<text text-anchor="middle" x="133" y="-849.8" font-family="Times,serif" font-size="14.00">batch_normalization_6: BatchNormalization</text>
<polyline fill="none" stroke="black" points="263,-830.5 263,-876.5 "/>
<text text-anchor="middle" x="290.5" y="-861.3" font-family="Times,serif" font-size="14.00">input:</text>
<polyline fill="none" stroke="black" points="263,-853.5 318,-853.5 "/>
<text text-anchor="middle" x="290.5" y="-838.3" font-family="Times,serif" font-size="14.00">output:</text>
<polyline fill="none" stroke="black" points="318,-830.5 318,-876.5 "/>
<text text-anchor="middle" x="380.5" y="-861.3" font-family="Times,serif" font-size="14.00">(None, 32, 32, 512)</text>
<polyline fill="none" stroke="black" points="318,-853.5 443,-853.5 "/>
<text text-anchor="middle" x="380.5" y="-838.3" font-family="Times,serif" font-size="14.00">(None, 32, 32, 512)</text>
</g>
<!-- 140318796385920&#45;&gt;140318796431544 -->
<g id="edge22" class="edge"><title>140318796385920&#45;&gt;140318796431544</title>
<path fill="none" stroke="black" d="M223,-913.366C223,-905.152 223,-895.658 223,-886.725"/>
<polygon fill="black" stroke="black" points="226.5,-886.607 223,-876.607 219.5,-886.607 226.5,-886.607"/>
</g>
<!-- 140318796575576 -->
<g id="node24" class="node"><title>140318796575576</title>
<polygon fill="none" stroke="black" points="75,-747.5 75,-793.5 371,-793.5 371,-747.5 75,-747.5"/>
<text text-anchor="middle" x="133" y="-766.8" font-family="Times,serif" font-size="14.00">conv7_1: Conv2D</text>
<polyline fill="none" stroke="black" points="191,-747.5 191,-793.5 "/>
<text text-anchor="middle" x="218.5" y="-778.3" font-family="Times,serif" font-size="14.00">input:</text>
<polyline fill="none" stroke="black" points="191,-770.5 246,-770.5 "/>
<text text-anchor="middle" x="218.5" y="-755.3" font-family="Times,serif" font-size="14.00">output:</text>
<polyline fill="none" stroke="black" points="246,-747.5 246,-793.5 "/>
<text text-anchor="middle" x="308.5" y="-778.3" font-family="Times,serif" font-size="14.00">(None, 32, 32, 512)</text>
<polyline fill="none" stroke="black" points="246,-770.5 371,-770.5 "/>
<text text-anchor="middle" x="308.5" y="-755.3" font-family="Times,serif" font-size="14.00">(None, 32, 32, 256)</text>
</g>
<!-- 140318796431544&#45;&gt;140318796575576 -->
<g id="edge23" class="edge"><title>140318796431544&#45;&gt;140318796575576</title>
<path fill="none" stroke="black" d="M223,-830.366C223,-822.152 223,-812.658 223,-803.725"/>
<polygon fill="black" stroke="black" points="226.5,-803.607 223,-793.607 219.5,-803.607 226.5,-803.607"/>
</g>
<!-- 140318327162920 -->
<g id="node25" class="node"><title>140318327162920</title>
<polygon fill="none" stroke="black" points="75,-664.5 75,-710.5 371,-710.5 371,-664.5 75,-664.5"/>
<text text-anchor="middle" x="133" y="-683.8" font-family="Times,serif" font-size="14.00">conv7_2: Conv2D</text>
<polyline fill="none" stroke="black" points="191,-664.5 191,-710.5 "/>
<text text-anchor="middle" x="218.5" y="-695.3" font-family="Times,serif" font-size="14.00">input:</text>
<polyline fill="none" stroke="black" points="191,-687.5 246,-687.5 "/>
<text text-anchor="middle" x="218.5" y="-672.3" font-family="Times,serif" font-size="14.00">output:</text>
<polyline fill="none" stroke="black" points="246,-664.5 246,-710.5 "/>
<text text-anchor="middle" x="308.5" y="-695.3" font-family="Times,serif" font-size="14.00">(None, 32, 32, 256)</text>
<polyline fill="none" stroke="black" points="246,-687.5 371,-687.5 "/>
<text text-anchor="middle" x="308.5" y="-672.3" font-family="Times,serif" font-size="14.00">(None, 32, 32, 256)</text>
</g>
<!-- 140318796575576&#45;&gt;140318327162920 -->
<g id="edge24" class="edge"><title>140318796575576&#45;&gt;140318327162920</title>
<path fill="none" stroke="black" d="M223,-747.366C223,-739.152 223,-729.658 223,-720.725"/>
<polygon fill="black" stroke="black" points="226.5,-720.607 223,-710.607 219.5,-720.607 226.5,-720.607"/>
</g>
<!-- 140318326789960 -->
<g id="node26" class="node"><title>140318326789960</title>
<polygon fill="none" stroke="black" points="75,-581.5 75,-627.5 371,-627.5 371,-581.5 75,-581.5"/>
<text text-anchor="middle" x="133" y="-600.8" font-family="Times,serif" font-size="14.00">conv7_3: Conv2D</text>
<polyline fill="none" stroke="black" points="191,-581.5 191,-627.5 "/>
<text text-anchor="middle" x="218.5" y="-612.3" font-family="Times,serif" font-size="14.00">input:</text>
<polyline fill="none" stroke="black" points="191,-604.5 246,-604.5 "/>
<text text-anchor="middle" x="218.5" y="-589.3" font-family="Times,serif" font-size="14.00">output:</text>
<polyline fill="none" stroke="black" points="246,-581.5 246,-627.5 "/>
<text text-anchor="middle" x="308.5" y="-612.3" font-family="Times,serif" font-size="14.00">(None, 32, 32, 256)</text>
<polyline fill="none" stroke="black" points="246,-604.5 371,-604.5 "/>
<text text-anchor="middle" x="308.5" y="-589.3" font-family="Times,serif" font-size="14.00">(None, 32, 32, 256)</text>
</g>
<!-- 140318327162920&#45;&gt;140318326789960 -->
<g id="edge25" class="edge"><title>140318327162920&#45;&gt;140318326789960</title>
<path fill="none" stroke="black" d="M223,-664.366C223,-656.152 223,-646.658 223,-637.725"/>
<polygon fill="black" stroke="black" points="226.5,-637.607 223,-627.607 219.5,-637.607 226.5,-637.607"/>
</g>
<!-- 140318326629376 -->
<g id="node27" class="node"><title>140318326629376</title>
<polygon fill="none" stroke="black" points="3,-498.5 3,-544.5 443,-544.5 443,-498.5 3,-498.5"/>
<text text-anchor="middle" x="133" y="-517.8" font-family="Times,serif" font-size="14.00">batch_normalization_7: BatchNormalization</text>
<polyline fill="none" stroke="black" points="263,-498.5 263,-544.5 "/>
<text text-anchor="middle" x="290.5" y="-529.3" font-family="Times,serif" font-size="14.00">input:</text>
<polyline fill="none" stroke="black" points="263,-521.5 318,-521.5 "/>
<text text-anchor="middle" x="290.5" y="-506.3" font-family="Times,serif" font-size="14.00">output:</text>
<polyline fill="none" stroke="black" points="318,-498.5 318,-544.5 "/>
<text text-anchor="middle" x="380.5" y="-529.3" font-family="Times,serif" font-size="14.00">(None, 32, 32, 256)</text>
<polyline fill="none" stroke="black" points="318,-521.5 443,-521.5 "/>
<text text-anchor="middle" x="380.5" y="-506.3" font-family="Times,serif" font-size="14.00">(None, 32, 32, 256)</text>
</g>
<!-- 140318326789960&#45;&gt;140318326629376 -->
<g id="edge26" class="edge"><title>140318326789960&#45;&gt;140318326629376</title>
<path fill="none" stroke="black" d="M223,-581.366C223,-573.152 223,-563.658 223,-554.725"/>
<polygon fill="black" stroke="black" points="226.5,-554.607 223,-544.607 219.5,-554.607 226.5,-554.607"/>
</g>
<!-- 140317998948872 -->
<g id="node28" class="node"><title>140317998948872</title>
<polygon fill="none" stroke="black" points="29.5,-415.5 29.5,-461.5 416.5,-461.5 416.5,-415.5 29.5,-415.5"/>
<text text-anchor="middle" x="133" y="-434.8" font-family="Times,serif" font-size="14.00">up_sampling2d_1: UpSampling2D</text>
<polyline fill="none" stroke="black" points="236.5,-415.5 236.5,-461.5 "/>
<text text-anchor="middle" x="264" y="-446.3" font-family="Times,serif" font-size="14.00">input:</text>
<polyline fill="none" stroke="black" points="236.5,-438.5 291.5,-438.5 "/>
<text text-anchor="middle" x="264" y="-423.3" font-family="Times,serif" font-size="14.00">output:</text>
<polyline fill="none" stroke="black" points="291.5,-415.5 291.5,-461.5 "/>
<text text-anchor="middle" x="354" y="-446.3" font-family="Times,serif" font-size="14.00">(None, 32, 32, 256)</text>
<polyline fill="none" stroke="black" points="291.5,-438.5 416.5,-438.5 "/>
<text text-anchor="middle" x="354" y="-423.3" font-family="Times,serif" font-size="14.00">(None, 64, 64, 256)</text>
</g>
<!-- 140318326629376&#45;&gt;140317998948872 -->
<g id="edge27" class="edge"><title>140318326629376&#45;&gt;140317998948872</title>
<path fill="none" stroke="black" d="M223,-498.366C223,-490.152 223,-480.658 223,-471.725"/>
<polygon fill="black" stroke="black" points="226.5,-471.607 223,-461.607 219.5,-471.607 226.5,-471.607"/>
</g>
<!-- 140317998988480 -->
<g id="node29" class="node"><title>140317998988480</title>
<polygon fill="none" stroke="black" points="68.5,-332.5 68.5,-378.5 377.5,-378.5 377.5,-332.5 68.5,-332.5"/>
<text text-anchor="middle" x="133" y="-351.8" font-family="Times,serif" font-size="14.00">deconv3_1: Conv2D</text>
<polyline fill="none" stroke="black" points="197.5,-332.5 197.5,-378.5 "/>
<text text-anchor="middle" x="225" y="-363.3" font-family="Times,serif" font-size="14.00">input:</text>
<polyline fill="none" stroke="black" points="197.5,-355.5 252.5,-355.5 "/>
<text text-anchor="middle" x="225" y="-340.3" font-family="Times,serif" font-size="14.00">output:</text>
<polyline fill="none" stroke="black" points="252.5,-332.5 252.5,-378.5 "/>
<text text-anchor="middle" x="315" y="-363.3" font-family="Times,serif" font-size="14.00">(None, 64, 64, 256)</text>
<polyline fill="none" stroke="black" points="252.5,-355.5 377.5,-355.5 "/>
<text text-anchor="middle" x="315" y="-340.3" font-family="Times,serif" font-size="14.00">(None, 64, 64, 128)</text>
</g>
<!-- 140317998948872&#45;&gt;140317998988480 -->
<g id="edge28" class="edge"><title>140317998948872&#45;&gt;140317998988480</title>
<path fill="none" stroke="black" d="M223,-415.366C223,-407.152 223,-397.658 223,-388.725"/>
<polygon fill="black" stroke="black" points="226.5,-388.607 223,-378.607 219.5,-388.607 226.5,-388.607"/>
</g>
<!-- 140317999110408 -->
<g id="node30" class="node"><title>140317999110408</title>
<polygon fill="none" stroke="black" points="68.5,-249.5 68.5,-295.5 377.5,-295.5 377.5,-249.5 68.5,-249.5"/>
<text text-anchor="middle" x="133" y="-268.8" font-family="Times,serif" font-size="14.00">deconv3_2: Conv2D</text>
<polyline fill="none" stroke="black" points="197.5,-249.5 197.5,-295.5 "/>
<text text-anchor="middle" x="225" y="-280.3" font-family="Times,serif" font-size="14.00">input:</text>
<polyline fill="none" stroke="black" points="197.5,-272.5 252.5,-272.5 "/>
<text text-anchor="middle" x="225" y="-257.3" font-family="Times,serif" font-size="14.00">output:</text>
<polyline fill="none" stroke="black" points="252.5,-249.5 252.5,-295.5 "/>
<text text-anchor="middle" x="315" y="-280.3" font-family="Times,serif" font-size="14.00">(None, 64, 64, 128)</text>
<polyline fill="none" stroke="black" points="252.5,-272.5 377.5,-272.5 "/>
<text text-anchor="middle" x="315" y="-257.3" font-family="Times,serif" font-size="14.00">(None, 64, 64, 128)</text>
</g>
<!-- 140317998988480&#45;&gt;140317999110408 -->
<g id="edge29" class="edge"><title>140317998988480&#45;&gt;140317999110408</title>
<path fill="none" stroke="black" d="M223,-332.366C223,-324.152 223,-314.658 223,-305.725"/>
<polygon fill="black" stroke="black" points="226.5,-305.607 223,-295.607 219.5,-305.607 226.5,-305.607"/>
</g>
<!-- 140317998635048 -->
<g id="node31" class="node"><title>140317998635048</title>
<polygon fill="none" stroke="black" points="68.5,-166.5 68.5,-212.5 377.5,-212.5 377.5,-166.5 68.5,-166.5"/>
<text text-anchor="middle" x="133" y="-185.8" font-family="Times,serif" font-size="14.00">deconv3_3: Conv2D</text>
<polyline fill="none" stroke="black" points="197.5,-166.5 197.5,-212.5 "/>
<text text-anchor="middle" x="225" y="-197.3" font-family="Times,serif" font-size="14.00">input:</text>
<polyline fill="none" stroke="black" points="197.5,-189.5 252.5,-189.5 "/>
<text text-anchor="middle" x="225" y="-174.3" font-family="Times,serif" font-size="14.00">output:</text>
<polyline fill="none" stroke="black" points="252.5,-166.5 252.5,-212.5 "/>
<text text-anchor="middle" x="315" y="-197.3" font-family="Times,serif" font-size="14.00">(None, 64, 64, 128)</text>
<polyline fill="none" stroke="black" points="252.5,-189.5 377.5,-189.5 "/>
<text text-anchor="middle" x="315" y="-174.3" font-family="Times,serif" font-size="14.00">(None, 64, 64, 128)</text>
</g>
<!-- 140317999110408&#45;&gt;140317998635048 -->
<g id="edge30" class="edge"><title>140317999110408&#45;&gt;140317998635048</title>
<path fill="none" stroke="black" d="M223,-249.366C223,-241.152 223,-231.658 223,-222.725"/>
<polygon fill="black" stroke="black" points="226.5,-222.607 223,-212.607 219.5,-222.607 226.5,-222.607"/>
</g>
<!-- 140317998590104 -->
<g id="node32" class="node"><title>140317998590104</title>
<polygon fill="none" stroke="black" points="3,-83.5 3,-129.5 443,-129.5 443,-83.5 3,-83.5"/>
<text text-anchor="middle" x="133" y="-102.8" font-family="Times,serif" font-size="14.00">batch_normalization_8: BatchNormalization</text>
<polyline fill="none" stroke="black" points="263,-83.5 263,-129.5 "/>
<text text-anchor="middle" x="290.5" y="-114.3" font-family="Times,serif" font-size="14.00">input:</text>
<polyline fill="none" stroke="black" points="263,-106.5 318,-106.5 "/>
<text text-anchor="middle" x="290.5" y="-91.3" font-family="Times,serif" font-size="14.00">output:</text>
<polyline fill="none" stroke="black" points="318,-83.5 318,-129.5 "/>
<text text-anchor="middle" x="380.5" y="-114.3" font-family="Times,serif" font-size="14.00">(None, 64, 64, 128)</text>
<polyline fill="none" stroke="black" points="318,-106.5 443,-106.5 "/>
<text text-anchor="middle" x="380.5" y="-91.3" font-family="Times,serif" font-size="14.00">(None, 64, 64, 128)</text>
</g>
<!-- 140317998635048&#45;&gt;140317998590104 -->
<g id="edge31" class="edge"><title>140317998635048&#45;&gt;140317998590104</title>
<path fill="none" stroke="black" d="M223,-166.366C223,-158.152 223,-148.658 223,-139.725"/>
<polygon fill="black" stroke="black" points="226.5,-139.607 223,-129.607 219.5,-139.607 226.5,-139.607"/>
</g>
<!-- 140317998670456 -->
<g id="node33" class="node"><title>140317998670456</title>
<polygon fill="none" stroke="black" points="86,-0.5 86,-46.5 360,-46.5 360,-0.5 86,-0.5"/>
<text text-anchor="middle" x="133" y="-19.8" font-family="Times,serif" font-size="14.00">pred: Conv2D</text>
<polyline fill="none" stroke="black" points="180,-0.5 180,-46.5 "/>
<text text-anchor="middle" x="207.5" y="-31.3" font-family="Times,serif" font-size="14.00">input:</text>
<polyline fill="none" stroke="black" points="180,-23.5 235,-23.5 "/>
<text text-anchor="middle" x="207.5" y="-8.3" font-family="Times,serif" font-size="14.00">output:</text>
<polyline fill="none" stroke="black" points="235,-0.5 235,-46.5 "/>
<text text-anchor="middle" x="297.5" y="-31.3" font-family="Times,serif" font-size="14.00">(None, 64, 64, 128)</text>
<polyline fill="none" stroke="black" points="235,-23.5 360,-23.5 "/>
<text text-anchor="middle" x="297.5" y="-8.3" font-family="Times,serif" font-size="14.00">(None, 64, 64, 313)</text>
</g>
<!-- 140317998590104&#45;&gt;140317998670456 -->
<g id="edge32" class="edge"><title>140317998590104&#45;&gt;140317998670456</title>
<path fill="none" stroke="black" d="M223,-83.3664C223,-75.1516 223,-65.6579 223,-56.7252"/>
<polygon fill="black" stroke="black" points="226.5,-56.6068 223,-46.6068 219.5,-56.6069 226.5,-56.6068"/>
</g>
</g>
</svg>
