<?xml version="1.0" encoding="UTF-8" standalone="no"?>
<!DOCTYPE svg PUBLIC "-//W3C//DTD SVG 1.1//EN"
 "http://www.w3.org/Graphics/SVG/1.1/DTD/svg11.dtd">
<!-- Generated by graphviz version 2.38.0 (20140413.2041)
 -->
<!-- Title: G Pages: 1 -->
<svg width="1274pt" height="304pt"
 viewBox="0.00 0.00 1274.00 304.00" xmlns="http://www.w3.org/2000/svg" xmlns:xlink="http://www.w3.org/1999/xlink">
<g id="graph0" class="graph" transform="scale(1 1) rotate(0) translate(4 300)">
<title>G</title>
<polygon fill="white" stroke="none" points="-4,4 -4,-300 1270,-300 1270,4 -4,4"/>
<!-- 140320646383208 -->
<g id="node1" class="node"><title>140320646383208</title>
<polygon fill="none" stroke="black" points="480,-249.5 480,-295.5 785,-295.5 785,-249.5 480,-249.5"/>
<text text-anchor="middle" x="542.5" y="-268.8" font-family="Times,serif" font-size="14.00">input_1: InputLayer</text>
<polyline fill="none" stroke="black" points="605,-249.5 605,-295.5 "/>
<text text-anchor="middle" x="632.5" y="-280.3" font-family="Times,serif" font-size="14.00">input:</text>
<polyline fill="none" stroke="black" points="605,-272.5 660,-272.5 "/>
<text text-anchor="middle" x="632.5" y="-257.3" font-family="Times,serif" font-size="14.00">output:</text>
<polyline fill="none" stroke="black" points="660,-249.5 660,-295.5 "/>
<text text-anchor="middle" x="722.5" y="-280.3" font-family="Times,serif" font-size="14.00">(None, 256, 256, 1)</text>
<polyline fill="none" stroke="black" points="660,-272.5 785,-272.5 "/>
<text text-anchor="middle" x="722.5" y="-257.3" font-family="Times,serif" font-size="14.00">(None, 256, 256, 1)</text>
</g>
<!-- 140317992053112 -->
<g id="node2" class="node"><title>140317992053112</title>
<polygon fill="none" stroke="black" points="0,-166.5 0,-212.5 303,-212.5 303,-166.5 0,-166.5"/>
<text text-anchor="middle" x="61.5" y="-185.8" font-family="Times,serif" font-size="14.00">lambda_1: Lambda</text>
<polyline fill="none" stroke="black" points="123,-166.5 123,-212.5 "/>
<text text-anchor="middle" x="150.5" y="-197.3" font-family="Times,serif" font-size="14.00">input:</text>
<polyline fill="none" stroke="black" points="123,-189.5 178,-189.5 "/>
<text text-anchor="middle" x="150.5" y="-174.3" font-family="Times,serif" font-size="14.00">output:</text>
<polyline fill="none" stroke="black" points="178,-166.5 178,-212.5 "/>
<text text-anchor="middle" x="240.5" y="-197.3" font-family="Times,serif" font-size="14.00">(None, 256, 256, 1)</text>
<polyline fill="none" stroke="black" points="178,-189.5 303,-189.5 "/>
<text text-anchor="middle" x="240.5" y="-174.3" font-family="Times,serif" font-size="14.00">(None, 256, 256, 1)</text>
</g>
<!-- 140320646383208&#45;&gt;140317992053112 -->
<g id="edge1" class="edge"><title>140320646383208&#45;&gt;140317992053112</title>
<path fill="none" stroke="black" d="M501.7,-249.473C436.871,-238.556 358.508,-225.36 292.361,-214.221"/>
<polygon fill="black" stroke="black" points="292.716,-210.732 282.274,-212.522 291.554,-217.634 292.716,-210.732"/>
</g>
<!-- 140317997484688 -->
<g id="node3" class="node"><title>140317997484688</title>
<polygon fill="none" stroke="black" points="321,-166.5 321,-212.5 624,-212.5 624,-166.5 321,-166.5"/>
<text text-anchor="middle" x="382.5" y="-185.8" font-family="Times,serif" font-size="14.00">lambda_2: Lambda</text>
<polyline fill="none" stroke="black" points="444,-166.5 444,-212.5 "/>
<text text-anchor="middle" x="471.5" y="-197.3" font-family="Times,serif" font-size="14.00">input:</text>
<polyline fill="none" stroke="black" points="444,-189.5 499,-189.5 "/>
<text text-anchor="middle" x="471.5" y="-174.3" font-family="Times,serif" font-size="14.00">output:</text>
<polyline fill="none" stroke="black" points="499,-166.5 499,-212.5 "/>
<text text-anchor="middle" x="561.5" y="-197.3" font-family="Times,serif" font-size="14.00">(None, 256, 256, 1)</text>
<polyline fill="none" stroke="black" points="499,-189.5 624,-189.5 "/>
<text text-anchor="middle" x="561.5" y="-174.3" font-family="Times,serif" font-size="14.00">(None, 256, 256, 1)</text>
</g>
<!-- 140320646383208&#45;&gt;140317997484688 -->
<g id="edge2" class="edge"><title>140320646383208&#45;&gt;140317997484688</title>
<path fill="none" stroke="black" d="M588.779,-249.366C569.113,-239.41 545.736,-227.576 525.119,-217.138"/>
<polygon fill="black" stroke="black" points="526.671,-214.001 516.168,-212.607 523.509,-220.246 526.671,-214.001"/>
</g>
<!-- 140317997484800 -->
<g id="node4" class="node"><title>140317997484800</title>
<polygon fill="none" stroke="black" points="642,-166.5 642,-212.5 945,-212.5 945,-166.5 642,-166.5"/>
<text text-anchor="middle" x="703.5" y="-185.8" font-family="Times,serif" font-size="14.00">lambda_3: Lambda</text>
<polyline fill="none" stroke="black" points="765,-166.5 765,-212.5 "/>
<text text-anchor="middle" x="792.5" y="-197.3" font-family="Times,serif" font-size="14.00">input:</text>
<polyline fill="none" stroke="black" points="765,-189.5 820,-189.5 "/>
<text text-anchor="middle" x="792.5" y="-174.3" font-family="Times,serif" font-size="14.00">output:</text>
<polyline fill="none" stroke="black" points="820,-166.5 820,-212.5 "/>
<text text-anchor="middle" x="882.5" y="-197.3" font-family="Times,serif" font-size="14.00">(None, 256, 256, 1)</text>
<polyline fill="none" stroke="black" points="820,-189.5 945,-189.5 "/>
<text text-anchor="middle" x="882.5" y="-174.3" font-family="Times,serif" font-size="14.00">(None, 256, 256, 1)</text>
</g>
<!-- 140320646383208&#45;&gt;140317997484800 -->
<g id="edge3" class="edge"><title>140320646383208&#45;&gt;140317997484800</title>
<path fill="none" stroke="black" d="M676.494,-249.366C696.283,-239.41 719.806,-227.576 740.552,-217.138"/>
<polygon fill="black" stroke="black" points="742.199,-220.228 749.559,-212.607 739.053,-213.975 742.199,-220.228"/>
</g>
<!-- 140317997397496 -->
<g id="node5" class="node"><title>140317997397496</title>
<polygon fill="none" stroke="black" points="963,-166.5 963,-212.5 1266,-212.5 1266,-166.5 963,-166.5"/>
<text text-anchor="middle" x="1024.5" y="-185.8" font-family="Times,serif" font-size="14.00">lambda_4: Lambda</text>
<polyline fill="none" stroke="black" points="1086,-166.5 1086,-212.5 "/>
<text text-anchor="middle" x="1113.5" y="-197.3" font-family="Times,serif" font-size="14.00">input:</text>
<polyline fill="none" stroke="black" points="1086,-189.5 1141,-189.5 "/>
<text text-anchor="middle" x="1113.5" y="-174.3" font-family="Times,serif" font-size="14.00">output:</text>
<polyline fill="none" stroke="black" points="1141,-166.5 1141,-212.5 "/>
<text text-anchor="middle" x="1203.5" y="-197.3" font-family="Times,serif" font-size="14.00">(None, 256, 256, 1)</text>
<polyline fill="none" stroke="black" points="1141,-189.5 1266,-189.5 "/>
<text text-anchor="middle" x="1203.5" y="-174.3" font-family="Times,serif" font-size="14.00">(None, 256, 256, 1)</text>
</g>
<!-- 140320646383208&#45;&gt;140317997397496 -->
<g id="edge4" class="edge"><title>140320646383208&#45;&gt;140317997397496</title>
<path fill="none" stroke="black" d="M763.572,-249.473C828.535,-238.556 907.062,-225.36 973.346,-214.221"/>
<polygon fill="black" stroke="black" points="974.172,-217.631 983.454,-212.522 973.012,-210.728 974.172,-217.631"/>
</g>
<!-- 140317998309784 -->
<g id="node6" class="node"><title>140317998309784</title>
<polygon fill="none" stroke="black" points="487.5,-83.5 487.5,-129.5 777.5,-129.5 777.5,-83.5 487.5,-83.5"/>
<text text-anchor="middle" x="542.5" y="-102.8" font-family="Times,serif" font-size="14.00">ColorNet: Model</text>
<polyline fill="none" stroke="black" points="597.5,-83.5 597.5,-129.5 "/>
<text text-anchor="middle" x="625" y="-114.3" font-family="Times,serif" font-size="14.00">input:</text>
<polyline fill="none" stroke="black" points="597.5,-106.5 652.5,-106.5 "/>
<text text-anchor="middle" x="625" y="-91.3" font-family="Times,serif" font-size="14.00">output:</text>
<polyline fill="none" stroke="black" points="652.5,-83.5 652.5,-129.5 "/>
<text text-anchor="middle" x="715" y="-114.3" font-family="Times,serif" font-size="14.00">(None, 256, 256, 1)</text>
<polyline fill="none" stroke="black" points="652.5,-106.5 777.5,-106.5 "/>
<text text-anchor="middle" x="715" y="-91.3" font-family="Times,serif" font-size="14.00">(None, 64, 64, 313)</text>
</g>
<!-- 140317992053112&#45;&gt;140317998309784 -->
<g id="edge5" class="edge"><title>140317992053112&#45;&gt;140317998309784</title>
<path fill="none" stroke="black" d="M282.3,-166.473C347.129,-155.556 425.492,-142.36 491.639,-131.221"/>
<polygon fill="black" stroke="black" points="492.446,-134.634 501.726,-129.522 491.284,-127.732 492.446,-134.634"/>
</g>
<!-- 140317997484688&#45;&gt;140317998309784 -->
<g id="edge6" class="edge"><title>140317997484688&#45;&gt;140317998309784</title>
<path fill="none" stroke="black" d="M516.221,-166.366C535.887,-156.41 559.264,-144.576 579.881,-134.138"/>
<polygon fill="black" stroke="black" points="581.491,-137.246 588.832,-129.607 578.329,-131.001 581.491,-137.246"/>
</g>
<!-- 140317997484800&#45;&gt;140317998309784 -->
<g id="edge7" class="edge"><title>140317997484800&#45;&gt;140317998309784</title>
<path fill="none" stroke="black" d="M749.506,-166.366C729.717,-156.41 706.194,-144.576 685.448,-134.138"/>
<polygon fill="black" stroke="black" points="686.947,-130.975 676.441,-129.607 683.801,-137.228 686.947,-130.975"/>
</g>
<!-- 140317997397496&#45;&gt;140317998309784 -->
<g id="edge8" class="edge"><title>140317997397496&#45;&gt;140317998309784</title>
<path fill="none" stroke="black" d="M983.428,-166.473C918.465,-155.556 839.938,-142.36 773.654,-131.221"/>
<polygon fill="black" stroke="black" points="773.988,-127.728 763.546,-129.522 772.828,-134.631 773.988,-127.728"/>
</g>
<!-- 140317991856728 -->
<g id="node7" class="node"><title>140317991856728</title>
<polygon fill="none" stroke="black" points="307.5,-0.5 307.5,-46.5 957.5,-46.5 957.5,-0.5 307.5,-0.5"/>
<text text-anchor="middle" x="365" y="-19.8" font-family="Times,serif" font-size="14.00">pred: Concatenate</text>
<polyline fill="none" stroke="black" points="422.5,-0.5 422.5,-46.5 "/>
<text text-anchor="middle" x="450" y="-31.3" font-family="Times,serif" font-size="14.00">input:</text>
<polyline fill="none" stroke="black" points="422.5,-23.5 477.5,-23.5 "/>
<text text-anchor="middle" x="450" y="-8.3" font-family="Times,serif" font-size="14.00">output:</text>
<polyline fill="none" stroke="black" points="477.5,-0.5 477.5,-46.5 "/>
<text text-anchor="middle" x="717.5" y="-31.3" font-family="Times,serif" font-size="14.00">[(None, 64, 64, 313), (None, 64, 64, 313), (None, 64, 64, 313), (None, 64, 64, 313)]</text>
<polyline fill="none" stroke="black" points="477.5,-23.5 957.5,-23.5 "/>
<text text-anchor="middle" x="717.5" y="-8.3" font-family="Times,serif" font-size="14.00">(None, 64, 64, 313)</text>
</g>
<!-- 140317998309784&#45;&gt;140317991856728 -->
<g id="edge9" class="edge"><title>140317998309784&#45;&gt;140317991856728</title>
<path fill="none" stroke="black" d="M632.5,-83.3664C632.5,-75.1516 632.5,-65.6579 632.5,-56.7252"/>
<polygon fill="black" stroke="black" points="636,-56.6068 632.5,-46.6068 629,-56.6069 636,-56.6068"/>
</g>
</g>
</svg>
